<svg width="300" height="174" viewBox="0 0 300 174" fill="none" xmlns="http://www.w3.org/2000/svg">
<path d="M23.2682 130.124L30.4778 143.153L46.5463 172.195H60.1241L37.2707 130.88L30.0611 117.852L23.2682 130.124Z" fill="#1FD6E3"/>
<path opacity="0.47" d="M23.2682 130.124L30.4778 143.153L46.5463 172.195H60.1241L37.2707 130.88L30.0611 117.852L23.2682 130.124Z" fill="url(#paint0_linear)"/>
<path d="M0 172.198H14.4186L30.4798 143.156L37.2726 130.883L30.063 117.854L23.2702 130.127L0 172.198Z" fill="#6130EE"/>
<path d="M105.558 152.306C105.558 163.401 96.5683 172.426 85.5181 172.426C74.4686 172.426 65.4792 163.401 65.4792 152.306L65.4785 131.967H75.736V152.306C75.736 157.723 80.1239 162.128 85.5181 162.128C90.9129 162.128 95.3015 157.723 95.3015 152.306V131.967H105.558V152.306Z" fill="#1FD6E3"/>
<path d="M133.051 131.309V141.714C128.866 141.714 125.462 145.131 125.462 149.333V171.964H115.099V149.333H115.099C115.099 139.394 123.152 131.309 133.051 131.309Z" fill="#1FD6E3"/>
<path d="M179.944 156.06C180.2 154.782 180.328 153.465 180.328 152.115C180.328 150.854 180.216 149.625 179.992 148.428C178.264 138.708 169.775 131.309 159.605 131.309C148.18 131.309 138.883 140.644 138.883 152.115C138.883 163.586 148.18 172.921 159.605 172.921C168.59 172.921 176.255 167.145 179.128 159.104H167.223C165.334 161.176 162.622 162.478 159.605 162.478C155.309 162.478 151.612 159.819 150.068 156.06H169.151H179.944ZM149.964 148.428C151.444 144.532 155.212 141.752 159.605 141.752C164.006 141.752 167.767 144.532 169.254 148.428H149.964Z" fill="#1FD6E3"/>
<path d="M247.676 172.195H237.261V117.852H247.676V172.195Z" fill="#1FD6E3"/>
<path d="M297.393 156.06C297.649 154.782 297.778 153.465 297.778 152.115C297.778 150.854 297.666 149.625 297.442 148.428C295.714 138.708 287.224 131.309 277.054 131.309C265.629 131.309 256.332 140.644 256.332 152.115C256.332 163.586 265.629 172.921 277.054 172.921C286.04 172.921 293.705 167.145 296.578 159.104H284.672C282.784 161.176 280.071 162.478 277.054 162.478C272.758 162.478 269.062 159.819 267.518 156.06H286.6H297.393ZM267.414 148.428C268.894 144.532 272.663 141.752 277.054 141.752C281.456 141.752 285.216 144.532 286.704 148.428H267.414Z" fill="#1FD6E3"/>
<path d="M207.804 173.442C196.126 173.442 186.624 163.86 186.624 152.082C186.624 140.304 196.126 130.721 207.804 130.721C219.483 130.721 228.984 140.304 228.984 152.082C228.984 163.86 219.483 173.442 207.804 173.442ZM207.804 141.443C201.988 141.443 197.256 146.216 197.256 152.082C197.256 157.948 201.988 162.72 207.804 162.72C213.62 162.72 218.353 157.948 218.353 152.082C218.353 146.216 213.62 141.443 207.804 141.443Z" fill="#1FD6E3"/>
<mask id="mask0" mask-type="alpha" maskUnits="userSpaceOnUse" x="100" y="0" width="100" height="101">
<path fill-rule="evenodd" clip-rule="evenodd" d="M150 100.063C177.614 100.063 200 77.663 200 50.0314C200 22.3998 177.614 0 150 0C122.386 0 100 22.3998 100 50.0314C100 77.663 122.386 100.063 150 100.063ZM149.484 72.347C162.086 72.347 172.302 62.1249 172.302 49.5152C172.302 36.9056 162.086 26.6834 149.484 26.6834C136.882 26.6834 126.667 36.9056 126.667 49.5152C126.667 62.1249 136.882 72.347 149.484 72.347Z" fill="#C4C4C4"/>
</mask>
<g mask="url(#mask0)">
<mask id="mask1" mask-type="alpha" maskUnits="userSpaceOnUse" x="100" y="0" width="100" height="101">
<ellipse rx="50" ry="50.0314" transform="matrix(1 0 0 -1 150 50.0315)" fill="black"/>
</mask>
<g mask="url(#mask1)">
<path d="M186.111 59.3627C189.073 76.7592 173.016 94.8347 163.492 98.4746L186.111 107.21L207.936 87.1579L210.913 20.8465L170.833 -1.38972L144.048 14.6918L116.468 32.3616C117.989 45.1342 128.968 66.7086 128.968 51.8183C128.968 36.928 140.079 29.9792 149.802 29.7806C159.524 29.5821 183.048 41.3738 186.111 59.3627Z" fill="#504444"/>
<path d="M186.111 59.3627C189.073 76.7592 173.016 94.8347 163.492 98.4746L186.111 107.21L207.936 87.1579L210.913 20.8465L170.833 -1.38972L144.048 14.6918L116.468 32.3616C117.989 45.1342 128.968 66.7086 128.968 51.8183C128.968 36.928 140.079 29.9792 149.802 29.7806C159.524 29.5821 183.048 41.3738 186.111 59.3627Z" fill="url(#paint1_linear)"/>
<path opacity="0.1" d="M190.596 57.4027C191.815 81.0528 167.531 102.606 154.242 105.954L183.07 121.164L215.367 97.8867L229.771 9.98945L179.752 -25.9669L141.457 -8.76331L101.852 10.4316C101.874 27.6924 113.14 58.1749 115.482 38.3321C117.824 18.4892 133.753 10.9825 146.766 12.2521C159.779 13.5216 189.336 32.9474 190.596 57.4027Z" fill="url(#paint2_linear)"/>
<path opacity="0.1" d="M194.564 46.6818C195.783 70.3319 171.499 91.8856 158.21 95.2332L187.038 110.444L219.335 87.1658L233.739 -0.731439L183.72 -36.6878L145.425 -19.4842L105.82 -0.289246C105.842 16.9716 117.108 47.4541 119.45 27.6112C121.792 7.76835 137.722 0.261632 150.734 1.53119C163.747 2.80075 193.304 22.2265 194.564 46.6818Z" fill="url(#paint3_linear)"/>
<path d="M143.254 19.258C122.42 35.5381 125.516 76.7147 155.556 72.2675C185.596 67.8203 151.785 84.5768 151.785 84.5768L109.127 75.047L95.6346 54.9947L89.6822 4.16915L172.619 -13.5007L193.254 10.9194L188.493 18.0668C181.614 7.61047 157.182 8.37343 143.254 19.258Z" fill="#E9CBCB"/>
<path d="M143.254 19.258C122.42 35.5381 125.516 76.7147 155.556 72.2675C185.596 67.8203 151.785 84.5768 151.785 84.5768L109.127 75.047L95.6346 54.9947L89.6822 4.16915L172.619 -13.5007L193.254 10.9194L188.493 18.0668C181.614 7.61047 157.182 8.37343 143.254 19.258Z" fill="url(#paint4_linear)"/>
<g opacity="0.1" filter="url(#filter0_d)">
<path d="M152.025 13.6019C120.283 23.4009 100.208 63.5409 138.824 79.8538C177.44 96.1668 132.858 94.133 132.858 94.133L87.0154 63.8545L80.13 34.2675L95.8509 -28.0879L201.152 -11.7332L214.474 26.1795L205.689 32.4435C202.283 17.0856 173.248 7.05048 152.025 13.6019Z" fill="url(#paint5_linear)"/>
</g>
<g opacity="0.1" filter="url(#filter1_d)">
<path d="M135.753 12.1607C103.822 27.0582 88.5697 72.1195 131.526 83.6413C174.482 95.1631 127.335 99.5005 127.335 99.5005L74.7515 74.3642L63.2078 44.2977L70.6495 -23.4573L183.69 -21.5734L203.21 16.3002L194.89 24.153C189.075 8.52181 157.101 2.20052 135.753 12.1607Z" fill="url(#paint6_linear)"/>
</g>
<path d="M185.714 55.7888C193.238 81.3219 172.288 95.4301 161.706 99.0699L165.476 119.122L126.587 108.997L76.5871 87.3562L70.4363 24.8169C77.4469 23.5595 93.0553 26.3655 99.4045 47.6487C107.341 74.2527 150 79.6133 164.484 67.3039C178.968 54.9946 170.476 29.145 157.778 31.1304C145.079 33.1158 149.603 27.1994 149.603 27.1994C161.64 24.2213 181.151 40.3029 185.714 55.7888Z" fill="url(#paint7_linear)"/>
<path opacity="0.15" d="M186.706 60.1569C189.682 87.6992 167.526 97.4158 156.944 101.056L168.055 119.971L129.166 109.846L79.1664 88.2051L73.0156 25.6658C80.0261 24.4084 84.7219 38.8737 91.0711 60.1569C99.0076 86.7609 142.986 104.061 161.508 81.996C173.442 67.7788 177.182 32.5602 164.484 34.5456C151.785 36.531 152.182 28.0482 152.182 28.0482C164.219 25.0702 184.972 44.1054 186.706 60.1569Z" fill="url(#paint8_linear)"/>
</g>
</g>
<defs>
<filter id="filter0_d" x="76.13" y="-28.0879" width="142.344" height="130.302" filterUnits="userSpaceOnUse" color-interpolation-filters="sRGB">
<feFlood flood-opacity="0" result="BackgroundImageFix"/>
<feColorMatrix in="SourceAlpha" type="matrix" values="0 0 0 0 0 0 0 0 0 0 0 0 0 0 0 0 0 0 127 0" result="hardAlpha"/>
<feOffset dy="4"/>
<feGaussianBlur stdDeviation="2"/>
<feColorMatrix type="matrix" values="0 0 0 0 0 0 0 0 0 0 0 0 0 0 0 0 0 0 0.25 0"/>
<feBlend mode="normal" in2="BackgroundImageFix" result="effect1_dropShadow"/>
<feBlend mode="normal" in="SourceGraphic" in2="effect1_dropShadow" result="shape"/>
</filter>
<filter id="filter1_d" x="59.2078" y="-23.4574" width="148.002" height="130.958" filterUnits="userSpaceOnUse" color-interpolation-filters="sRGB">
<feFlood flood-opacity="0" result="BackgroundImageFix"/>
<feColorMatrix in="SourceAlpha" type="matrix" values="0 0 0 0 0 0 0 0 0 0 0 0 0 0 0 0 0 0 127 0" result="hardAlpha"/>
<feOffset dy="4"/>
<feGaussianBlur stdDeviation="2"/>
<feColorMatrix type="matrix" values="0 0 0 0 0 0 0 0 0 0 0 0 0 0 0 0 0 0 0.25 0"/>
<feBlend mode="normal" in2="BackgroundImageFix" result="effect1_dropShadow"/>
<feBlend mode="normal" in="SourceGraphic" in2="effect1_dropShadow" result="shape"/>
</filter>
<linearGradient id="paint0_linear" x1="50.6051" y1="155.457" x2="23.2711" y2="132.457" gradientUnits="userSpaceOnUse">
<stop stop-color="#471AC6" stop-opacity="0"/>
<stop offset="0.23462" stop-color="#471AC6" stop-opacity="0.29264"/>
<stop offset="0.52244" stop-color="#471AC6" stop-opacity="0.65165"/>
<stop offset="0.72155" stop-color="#471AC6" stop-opacity="0.9"/>
</linearGradient>
<linearGradient id="paint1_linear" x1="148.611" y1="13.1035" x2="175.494" y2="48.5856" gradientUnits="userSpaceOnUse">
<stop stop-color="#6130EE"/>
<stop offset="1" stop-color="#1FD6E3"/>
</linearGradient>
<linearGradient id="paint2_linear" x1="156.547" y1="17.2727" x2="201.823" y2="80.3806" gradientUnits="userSpaceOnUse">
<stop/>
<stop offset="1" stop-opacity="0"/>
</linearGradient>
<linearGradient id="paint3_linear" x1="160.516" y1="6.55182" x2="205.791" y2="69.6598" gradientUnits="userSpaceOnUse">
<stop/>
<stop offset="1" stop-opacity="0"/>
</linearGradient>
<linearGradient id="paint4_linear" x1="84.5235" y1="67.7011" x2="138.101" y2="1.73475" gradientUnits="userSpaceOnUse">
<stop stop-color="#6130EE"/>
<stop offset="1" stop-color="#1FD6E3"/>
</linearGradient>
<linearGradient id="paint5_linear" x1="108.333" y1="61.5464" x2="163.329" y2="4.79927" gradientUnits="userSpaceOnUse">
<stop/>
<stop offset="1" stop-opacity="0"/>
</linearGradient>
<linearGradient id="paint6_linear" x1="101.785" y1="59.164" x2="147.066" y2="-17.4465" gradientUnits="userSpaceOnUse">
<stop/>
<stop offset="1" stop-opacity="0"/>
</linearGradient>
<linearGradient id="paint7_linear" x1="159.524" y1="60.9507" x2="114.868" y2="84.9504" gradientUnits="userSpaceOnUse">
<stop stop-color="#6130EE"/>
<stop offset="1" stop-color="#1FD6E3"/>
</linearGradient>
<linearGradient id="paint8_linear" x1="191.27" y1="63.7306" x2="120.227" y2="90.3053" gradientUnits="userSpaceOnUse">
<stop/>
<stop offset="1" stop-opacity="0"/>
</linearGradient>
</defs>
</svg>
